0
SECTION
2
HEADER
9
$INSUNITS
70
4
9
$ACADVER
1
AC1014
9
$HANDSEED
5
FFFF
0
ENDSEC
0
SECTION
2
TABLES
0
TABLE
2
VPORT
5
8
100
AcDbSymbolTable
0
ENDTAB
0
TABLE
2
LTYPE
5
5
100
AcDbSymbolTable
0
LTYPE
5
14
100
AcDbSymbolTableRecord
100
AcDbLinetypeTableRecord
2
BYBLOCK
70
0
0
LTYPE
5
15
100
AcDbSymbolTableRecord
100
AcDbLinetypeTableRecord
2
BYLAYER
70
0
0
LTYPE
5
16
100
AcDbSymbolTableRecord
100
AcDbLinetypeTableRecord
2
DASHED
70
0
3
Dashed __ __ __ __ __ __ __ __ __ __ __ __ __ _
72
65
73
2
40
0.75
49
0.5
74
0
49
-0.25
74
0
0
ENDTAB
0
TABLE
2
LAYER
5
2
100
AcDbSymbolTable
70
2
0
LAYER
5
50
100
AcDbSymbolTableRecord
100
AcDbLayerTableRecord
2
0
70
0
62
7
6
CONTINUOUS
0
ENDTAB
0
TABLE
2
STYLE
5
3
100
AcDbSymbolTable
70
1
0
STYLE
5
11
100
AcDbSymbolTableRecord
100
AcDbTextStyleTableRecord
2
STANDARD
70
0
0
ENDTAB
0
TABLE
2
VIEW
5
6
100
AcDbSymbolTable
70
0
0
ENDTAB
0
TABLE
2
UCS
5
7
100
AcDbSymbolTable
70
0
0
ENDTAB
0
TABLE
2
APPID
5
9
100
AcDbSymbolTable
70
2
0
APPID
5
12
100
AcDbSymbolTableRecord
100
AcDbRegAppTableRecord
2
ACAD
70
0
0
ENDTAB
0
TABLE
2
DIMSTYLE
5
A
100
AcDbSymbolTable
70
1
0
ENDTAB
0
TABLE
2
BLOCK_RECORD
5
1
100
AcDbSymbolTable
70
1
0
BLOCK_RECORD
5
1F
100
AcDbSymbolTableRecord
100
AcDbBlockTableRecord
2
*MODEL_SPACE
0
BLOCK_RECORD
5
1B
100
AcDbSymbolTableRecord
100
AcDbBlockTableRecord
2
*PAPER_SPACE
0
ENDTAB
0
ENDSEC
0
SECTION
2
BLOCKS
0
BLOCK
5
20
100
AcDbEntity
100
AcDbBlockBegin
2
*MODEL_SPACE
0
ENDBLK
5
21
100
AcDbEntity
100
AcDbBlockEnd
0
BLOCK
5
1C
100
AcDbEntity
100
AcDbBlockBegin
2
*PAPER_SPACE
0
ENDBLK
5
1D
100
AcDbEntity
100
AcDbBlockEnd
0
ENDSEC
0
SECTION
2
ENTITIES
0
LINE
5
100
100
AcDbEntity
8
0
100
AcDbLine
10
21.203916136152287
20
-54.248893796621253
30
0
11
7.5296390194037421
21
-54.248893796621253
31
0
0
LINE
5
101
100
AcDbEntity
8
0
100
AcDbLine
10
7.5296390194037413
20
-55.748893796621253
30
0
11
21.203916136155762
21
-55.748893796621253
31
0
0
LINE
5
102
100
AcDbEntity
8
0
100
AcDbLine
10
7.5296390194037413
20
-57.498893796621253
30
0
11
7.5296390194037413
21
-55.748893796621253
31
0
0
LINE
5
103
100
AcDbEntity
8
0
100
AcDbLine
10
21.203916136155762
20
-55.748893796621253
30
0
11
21.203916136155762
21
-76.774351219049066
31
0
0
ARC
5
104
100
AcDbEntity
8
0
100
AcDbCircle
10
5.5296390194037359
20
-57.498893796621246
30
0
40
2.0000000000000107
210
0
220
0
230
1
100
AcDbArc
50
270.00000000000011
51
360
0
LINE
5
105
100
AcDbEntity
8
0
100
AcDbLine
10
7.5296390194037421
20
-54.248893796621253
30
0
11
7.5296390194037413
21
-52.498893796621253
31
0
0
ARC
5
106
100
AcDbEntity
8
0
100
AcDbCircle
10
-6.4703609805962543
20
-57.498893796621253
30
0
40
2.000000000000004
210
0
220
0
230
1
100
AcDbArc
50
180
51
269.99999999999989
0
LINE
5
107
100
AcDbEntity
8
0
100
AcDbLine
10
-6.4703609805962579
20
-59.498893796621253
30
0
11
5.5296390194037404
21
-59.498893796621253
31
0
0
ARC
5
108
100
AcDbEntity
8
0
100
AcDbCircle
10
-6.4703609805962543
20
-52.49889379662126
30
0
40
2.0000000000000107
210
0
220
0
230
1
100
AcDbArc
50
90.000000000000142
51
180
0
LINE
5
109
100
AcDbEntity
8
0
100
AcDbLine
10
-8.470360980596265
20
-52.498893796621253
30
0
11
-8.4703609805962579
21
-57.498893796621253
31
0
0
ARC
5
110
100
AcDbEntity
8
0
100
AcDbCircle
10
5.5296390194037359
20
-52.498893796621253
30
0
40
2.0000000000000053
210
0
220
0
230
1
100
AcDbArc
50
0
51
89.999999999999901
0
LINE
5
111
100
AcDbEntity
8
0
100
AcDbLine
10
5.5296390194037395
20
-50.498893796621253
30
0
11
-6.4703609805962596
21
-50.498893796621253
31
0
0
ARC
5
112
100
AcDbEntity
8
0
100
AcDbCircle
10
0.17072248381172273
20
-0.25730006254525151
30
0
40
85.507344066382018
210
0
220
0
230
1
100
AcDbArc
50
157.05776175732487
51
251.64313442941784
0
SPLINE
5
113
100
AcDbEntity
8
0
100
AcDbSpline
70
0
71
3
72
14
73
10
74
0
42
0.000000001
43
0.0000000001
44
0.0000000001
40
-0.0013350452999074532
40
-0.0013350452999074532
40
-0.0013350452999074532
40
-0.0013350452999074532
40
0
40
0
40
0
40
0.34064199425738984
40
0.34064199425738984
40
0.34064199425738984
40
0.99999999999999956
40
0.99999999999999956
40
0.99999999999999956
40
0.99999999999999956
10
-26.758498530608836
20
-81.413463998769402
30
0
10
-26.752768982325783
20
-81.414512084594591
30
0
10
-26.747039434042769
20
-81.415560170419795
30
0
10
-26.741309885759716
20
-81.416608256244984
30
0
10
-25.242287949567284
20
-81.690818990732609
30
0
10
-24.047976975321351
20
-81.557389527454177
30
0
10
-23.126012541617385
20
-81.152478312082238
30
0
10
-21.34142743284972
20
-80.368718658336434
30
0
10
-20.636894571908048
20
-78.594043840584291
30
0
10
-20.636894571908048
20
-77.036043332801043
30
0
0
LINE
5
114
100
AcDbEntity
8
0
100
AcDbLine
10
-20.636894571908048
20
-77.036043332801029
30
0
11
-20.636894571908048
21
-62.228384620771926
31
0
0
SPLINE
5
115
100
AcDbEntity
8
0
100
AcDbSpline
70
0
71
3
72
17
73
13
74
0
42
0.000000001
43
0.0000000001
44
0.0000000001
40
-0.006365145496557219
40
-0.006365145496557219
40
-0.006365145496557219
40
-0.006365145496557219
40
0
40
0
40
0
40
0.33890395033379095
40
0.33890395033379095
40
0.33890395033379095
40
1
40
1
40
1
40
1.0000143831989319
40
1.0000143831989319
40
1.0000143831989319
40
1.0000143831989319
10
-20.636894571908059
20
-62.228384620771926
30
0
10
-20.737945259470933
20
-62.250371505417085
30
0
10
-20.838995947033816
20
-62.272358390062251
30
0
10
-20.94004663459669
20
-62.29434527470741
30
0
10
-26.30073508607564
20
-63.460738512041608
30
0
10
-30.934950538403569
20
-63.791526464901587
30
0
10
-34.838310015359177
20
-63.295922946186359
30
0
10
-42.45254858679202
20
-62.329154845370141
30
0
10
-47.29323357064159
20
-58.266017993088411
30
0
10
-49.485379722617807
20
-51.004533456348177
30
0
10
-49.485427900329583
20
-51.00437386766896
30
0
10
-49.485476078041359
20
-51.004214278989757
30
0
10
-49.48552425575312
20
-51.004054690310539
30
0
0
ARC
5
116
100
AcDbEntity
8
0
100
AcDbCircle
10
-71.543369717342529
20
-57.75917367504222
30
0
40
23.069030731811058
210
0
220
-0
230
1
100
AcDbArc
50
17.026978908356227
51
57.238675823454415
0
SPLINE
5
117
100
AcDbEntity
8
0
100
AcDbSpline
70
0
71
3
72
17
73
13
74
0
42
0.000000001
43
0.0000000001
44
0.0000000001
40
0.00017312974323854813
40
0.00017312974323854813
40
0.00017312974323854813
40
0.00017312974323854813
40
0.15103517160991825
40
0.15103517160991825
40
0.15103517160991825
40
0.4678123312347382
40
0.4678123312347382
40
0.4678123312347382
40
0.66744072702670154
40
0.66744072702670154
40
0.66744072702670154
40
0.99893194660317197
40
0.99893194660317197
40
0.99893194660317197
40
0.99893194660317197
10
-59.059778572293084
20
-38.359685768717384
30
0
10
-59.828047111555456
20
-37.83695621479275
30
0
10
-60.473654551912674
20
-37.354887150193782
30
0
10
-60.995353333531213
20
-36.915425280066259
30
0
10
-62.090806213367607
20
-35.992651855685367
30
0
10
-62.609886687874159
20
-35.239922919164599
30
0
10
-62.641797929715352
20
-34.798746958436112
30
0
10
-62.661907933934188
20
-34.520724232913494
30
0
10
-62.554241660651677
20
-34.330771216341347
30
0
10
-62.207759941332554
20
-34.129457382649953
30
0
10
-61.632412695554251
20
-33.795167423632712
30
0
10
-60.405142507728669
20
-33.585698108611531
30
0
10
-58.587292267412572
20
-33.58447448576478
30
0
0
ARC
5
118
100
AcDbEntity
8
0
100
AcDbCircle
10
-61.080443654640973
20
-51.10969239717258
30
0
40
17.701668471699712
210
0
220
-0
230
1
100
AcDbArc
50
30.032872926540605
51
81.903385434373092
0
ARC
5
119
100
AcDbEntity
8
0
100
AcDbCircle
10
-29.589014630720925
20
-33.331405121570455
30
0
40
18.463354346384936
210
0
220
0
230
1
100
AcDbArc
50
208.88456456423864
51
299.5247930592169
0
ARC
5
120
100
AcDbEntity
8
0
100
AcDbCircle
10
-2.6736783305285594
20
-50.622500929421307
30
0
40
17.8586799965009
210
0
220
0
230
1
100
AcDbArc
50
133.39816138426474
51
176.06564694421641
0
SPLINE
5
121
100
AcDbEntity
8
0
100
AcDbSpline
70
0
71
3
72
17
73
13
74
0
42
0.000000001
43
0.0000000001
44
0.0000000001
40
-0.0092243179245177706
40
-0.0092243179245177706
40
-0.0092243179245177706
40
-0.0092243179245177706
40
0
40
0
40
0
40
0.3567360949906816
40
0.3567360949906816
40
0.3567360949906816
40
1
40
1
40
1
40
1.0000198062518582
40
1.0000198062518582
40
1.0000198062518582
40
1.0000198062518582
10
-14.94373792150434
20
-37.646442635342737
30
0
10
-15.118502538839175
20
-37.626648859457234
30
0
10
-15.293267156174011
20
-37.606855083571716
30
0
10
-15.468031773508846
20
-37.587061307686213
30
0
10
-22.211156868892932
20
-36.823337454760939
30
0
10
-29.062027172793044
20
-35.401612034618346
30
0
10
-35.075780894539321
20
-32.433757005410655
30
0
10
-45.919737413477719
20
-27.082142626048359
30
0
10
-54.080388036872677
20
-16.739534002354567
30
0
10
-54.080388036872677
20
4.0343067738164429
30
0
10
-54.080388036872677
20
4.0349484319068027
30
0
10
-54.080388036872677
20
4.0355900899971617
30
0
10
-54.080388036872677
20
4.0362317480875216
30
0
0
ARC
5
122
100
AcDbEntity
8
0
100
AcDbCircle
10
-21.361830088105251
20
4.5410815094731198
30
0
40
32.722452651477653
210
0
220
0
230
1
100
AcDbArc
50
137.02777826025277
51
180.88400794959222
0
ARC
5
123
100
AcDbEntity
8
0
100
AcDbCircle
10
-16.224100807926796
20
37.109737509919242
30
0
40
30.838311858230472
210
0
220
0
230
1
100
AcDbArc
50
156.79917851488253
51
199.44001828696133
0
SPLINE
5
124
100
AcDbEntity
8
0
100
AcDbSpline
70
0
71
3
72
14
73
10
74
0
42
0.000000001
43
0.0000000001
44
0.0000000001
40
0.007737296586871327
40
0.007737296586871327
40
0.007737296586871327
40
0.007737296586871327
40
0.12626661735301803
40
0.12626661735301803
40
0.12626661735301803
40
1
40
1
40
1
40
1.0029330079114724
40
1.0029330079114724
40
1.0029330079114724
40
1.0029330079114724
10
-44.568508856259889
20
49.258647364513848
30
0
10
-44.015595384334546
20
49.426612069513816
30
0
10
-43.419201366888068
20
49.534884275069366
30
0
10
-42.778263364243692
20
49.582467755184169
30
0
10
-38.05361864766472
20
49.933227168720677
30
0
10
-30.908889406821171
20
46.936009815447974
30
0
10
-21.445956015173984
20
40.51582258426987
30
0
10
-21.414129203060082
20
40.494229481551514
30
0
10
-21.382302390946187
20
40.472636378833172
30
0
10
-21.350475578832288
20
40.451043276114817
30
0
0
ARC
5
125
100
AcDbEntity
8
0
100
AcDbCircle
10
0.047990375380395633
20
-37.050782625445287
30
0
40
80.401662689681572
210
0
220
-0
230
1
100
AcDbArc
50
74.565025567511782
51
105.43497443248455
0
SPLINE
5
126
100
AcDbEntity
8
0
100
AcDbSpline
70
0
71
3
72
14
73
10
74
0
42
0.000000001
43
0.0000000001
44
0.0000000001
40
-0.0029330079114723516
40
-0.0029330079114723516
40
-0.0029330079114723516
40
-0.0029330079114723516
40
0
40
0
40
0
40
0.18016154665257245
40
0.18016154665257245
40
0.18016154665257245
40
0.99232341966390836
40
0.99232341966390836
40
0.99232341966390836
40
0.99232341966390836
10
21.446456329593122
20
40.451043276114802
30
0
10
21.478283141707024
20
40.472636378833158
30
0
10
21.510109953820937
20
40.494229481551514
30
0
10
21.541936765934832
20
40.51582258426987
30
0
10
23.493187535463381
20
41.839661055584841
30
0
10
25.34477477613774
20
43.018853916953105
30
0
10
27.09636281003824
20
44.053359145155881
30
0
10
34.99245964528685
20
48.716872083338075
30
0
10
40.853560611317199
20
50.409444605061545
30
0
10
44.61331600753735
20
49.258538181778007
30
0
0
ARC
5
127
100
AcDbEntity
8
0
100
AcDbCircle
10
16.523559614405055
20
36.917237628142516
30
0
40
30.681299085612718
210
-0
220
0
230
1
100
AcDbArc
50
-18.854884652734725
51
23.718398377206729
0
ARC
5
128
100
AcDbEntity
8
0
100
AcDbCircle
10
21.614821115850393
20
4.6981017689909539
30
0
40
32.722452651477852
210
0
220
0
230
1
100
AcDbArc
50
-0.88400794920304782
51
42.969192750789404
0
SPLINE
5
129
100
AcDbEntity
8
0
100
AcDbSpline
70
0
71
3
72
17
73
13
74
0
42
0.000000001
43
0.0000000001
44
0.0000000001
40
-1.9584776416876535e-05
40
-1.9584776416876535e-05
40
-1.9584776416876535e-05
40
-1.9584776416876535e-05
40
0
40
0
40
0
40
0.34968940740799692
40
0.34968940740799692
40
0.34968940740799692
40
1
40
1
40
1
40
1.0093137651650899
40
1.0093137651650899
40
1.0093137651650899
40
1.0093137651650899
10
54.333379064617972
20
4.1932520078244719
30
0
10
54.333379064617972
20
4.1926103496611011
30
0
10
54.333379064618001
20
4.1919686914977241
30
0
10
54.333379064618001
20
4.1913270333343533
30
0
10
54.333379064618001
20
-7.2301134403731986
30
0
10
51.904115853863459
20
-15.504318141337359
30
0
10
47.952221247408872
20
-21.524078527901516
30
0
10
40.602959677165906
20
-32.718909887722909
30
0
10
27.945143493259181
20
-36.173369993806411
30
0
10
15.619130319097639
20
-37.429736486063462
30
0
10
15.442183513386583
20
-37.447772328997118
30
0
10
15.265236707675525
20
-37.46580817193076
30
0
10
15.088289901964471
20
-37.48384401486441
30
0
0
ARC
5
130
100
AcDbEntity
8
0
100
AcDbCircle
10
1.3592732048858891
20
-51.889307458150057
30
0
40
19.899831066732723
210
0
220
0
230
1
100
AcDbArc
50
-4.2681160203025437
51
46.377316292077026
0
LINE
5
131
100
AcDbEntity
8
0
100
AcDbLine
10
21.203916136134904
20
-53.370328530157245
30
0
11
21.203916136152287
21
-54.248893796621253
31
0
0
SPLINE
5
132
100
AcDbEntity
8
0
100
AcDbSpline
70
0
71
3
72
14
73
10
74
0
42
0.000000001
43
0.0000000001
44
0.0000000001
40
0
40
0
40
0
40
0
40
0.42858053709733379
40
0.42858053709733379
40
0.42858053709733379
40
0.99999999999999989
40
0.99999999999999989
40
0.99999999999999989
40
1.0013342997353309
40
1.0013342997353309
40
1.0013342997353309
40
1.0013342997353309
10
21.203916136155762
20
-76.774351219049066
30
0
10
21.203916136155762
20
-78.002261027483996
30
0
10
21.490942356761323
20
-79.138576520950835
30
0
10
22.203258355522411
20
-79.971798910335195
30
0
10
23.152977696922644
20
-81.082720776841597
30
0
10
24.830159081093626
20
-81.590399081124332
30
0
10
27.363011212513491
20
-81.102138850044952
30
0
10
27.368807396237322
20
-81.10102151438636
30
0
10
27.37460357996115
20
-81.099904178727769
30
0
10
27.380399763684981
20
-81.098786843069178
30
0
0
ARC
5
133
100
AcDbEntity
8
0
100
AcDbCircle
10
-0.47036097838104141
20
-0.25423838508718433
30
0
40
85.507344066382984
210
-0
220
0
230
1
100
AcDbArc
50
289.00871168604033
51
327.32013337158719
0
ARC
5
134
100
AcDbEntity
8
0
100
AcDbCircle
10
0
20
0
30
0
40
85.250000000000028
210
0
220
0
230
1
100
AcDbArc
50
-32.994381010611633
51
89.778385062382256
0
ARC
5
135
100
AcDbEntity
8
0
100
AcDbCircle
10
-0.47036097838104141
20
-0.25423838508718433
30
0
40
85.507344066382018
210
0
220
-0
230
1
100
AcDbArc
50
89.463870680183433
51
89.51158181964739
0
ARC
5
136
100
AcDbEntity
8
0
100
AcDbCircle
10
0.17072248381172273
20
-0.25730006254525151
30
0
40
85.507344066382046
210
0
220
-0
230
1
100
AcDbArc
50
89.941157571510161
51
90.07198964512699
0
ARC
5
137
100
AcDbEntity
8
0
100
AcDbCircle
10
0
20
0
30
0
40
85.250000000000028
210
0
220
-0
230
1
100
AcDbArc
50
89.957465848821158
51
157.1722855536307
0
CIRCLE
5
138
100
AcDbEntity
8
0
100
AcDbCircle
10
0
20
0
30
0
40
100
210
0
220
0
230
1
0
ENDSEC
0
SECTION
2
OBJECTS
0
DICTIONARY
5
C
100
AcDbDictionary
3
ACAD_GROUP
350
D
3
ACAD_MLINESTYLE
350
17
0
DICTIONARY
5
D
100
AcDbDictionary
0
DICTIONARY
5
1A
330
C
100
AcDbDictionary
0
DICTIONARY
5
17
100
AcDbDictionary
0
ENDSEC
0
EOF
